<svg xmlns="http://www.w3.org/2000/svg" width="680" height="704" viewBox="0 0 680 704" role="img" aria-label="Hive"><defs>
    <filter id="glow" filterUnits="userSpaceOnUse" x="-400" y="-400" width="1200" height="1000" color-interpolation-filters="sRGB"><feGaussianBlur stdDeviation="9" result="wide"/><feGaussianBlur in="SourceGraphic" stdDeviation="3" result="tight"/><feMerge><feMergeNode in="wide"/><feMergeNode in="tight"/><feMergeNode in="SourceGraphic"/></feMerge></filter>
    <filter id="hot" filterUnits="userSpaceOnUse" x="-400" y="-400" width="1200" height="1000" color-interpolation-filters="sRGB"><feGaussianBlur stdDeviation="4" result="blur"/><feMerge><feMergeNode in="blur"/><feMergeNode in="SourceGraphic"/></feMerge></filter>
    <radialGradient id="depth"><stop stop-color="#180708"/><stop offset="0.65" stop-color="#0c0506"/><stop offset="1" stop-color="#020203"/></radialGradient>
    <radialGradient id="core"><stop stop-color="#640910"/><stop offset="0.7" stop-color="#270508"/><stop offset="1" stop-color="#090304"/></radialGradient>
    </defs><g transform="translate(340 352)"><path d="M 104 0 L 52 90.066642 L -52 90.066642 L -104 0 L -52 -90.066642 L 52 -90.066642 Z" fill="none" stroke="#b00010" stroke-width="11" filter="url(#glow)"/><path d="M 104 0 L 52 90.066642 L -52 90.066642 L -104 0 L -52 -90.066642 L 52 -90.066642 Z" fill="url(#core)" stroke="#ff2a2a" stroke-width="6.5" stroke-linejoin="round"/><path d="M 84 0 L 42 72.746134 L -42 72.746134 L -84 0 L -42 -72.746134 L 42 -72.746134 Z" fill="none" stroke="#5e1b20" stroke-width="1.2"/><path d="M -15 -70 L 15 -70" fill="none" stroke="#551318" stroke-width="1.6" /><path d="M -8 -66 L 8 -66" fill="none" stroke="#8c2028" stroke-width="1" /><path d="M -15 70 L 15 70" fill="none" stroke="#551318" stroke-width="1.6" /><path d="M -8 66 L 8 66" fill="none" stroke="#8c2028" stroke-width="1" /><path d="M 104 -205 L 52 -114.933358 L -52 -114.933358 L -104 -205 L -52 -295.066642 L 52 -295.066642 Z" fill="none" stroke="#b00010" stroke-width="11" filter="url(#glow)"/><path d="M 104 -205 L 52 -114.933358 L -52 -114.933358 L -104 -205 L -52 -295.066642 L 52 -295.066642 Z" fill="url(#depth)" stroke="#ff2a2a" stroke-width="6.5" stroke-linejoin="round"/><path d="M 84 -205 L 42 -132.253866 L -42 -132.253866 L -84 -205 L -42 -277.746134 L 42 -277.746134 Z" fill="none" stroke="#5e1b20" stroke-width="1.2"/><path d="M -15 -275 L 15 -275" fill="none" stroke="#551318" stroke-width="1.6" /><path d="M -8 -271 L 8 -271" fill="none" stroke="#8c2028" stroke-width="1" /><path d="M -15 -135 L 15 -135" fill="none" stroke="#551318" stroke-width="1.6" /><path d="M -8 -139 L 8 -139" fill="none" stroke="#8c2028" stroke-width="1" /><path d="M 0 -205 L 0 -239" fill="none" stroke="#62565a" stroke-width="2.5" stroke-linecap="round"/><path d="M 0 -205 L 29.444864 -188" fill="none" stroke="#62565a" stroke-width="2.5" stroke-linecap="round"/><path d="M 0 -205 L -29.444864 -188" fill="none" stroke="#62565a" stroke-width="2.5" stroke-linecap="round"/><path d="M 0 -237 L 0 -214" fill="none" stroke="#ff2a2a" stroke-width="4" stroke-linecap="round" filter="url(#hot)"/><path d="M 0 -236 L 0 -215" fill="none" stroke="#fff1ec" stroke-width="1.3" stroke-linecap="round"/><path d="M 281.535208 -102.5 L 229.535208 -12.433358 L 125.535208 -12.433358 L 73.535208 -102.5 L 125.535208 -192.566642 L 229.535208 -192.566642 Z" fill="none" stroke="#b00010" stroke-width="11" filter="url(#glow)"/><path d="M 281.535208 -102.5 L 229.535208 -12.433358 L 125.535208 -12.433358 L 73.535208 -102.5 L 125.535208 -192.566642 L 229.535208 -192.566642 Z" fill="url(#depth)" stroke="#ff2a2a" stroke-width="6.5" stroke-linejoin="round"/><path d="M 261.535208 -102.5 L 219.535208 -29.753866 L 135.535208 -29.753866 L 93.535208 -102.5 L 135.535208 -175.246134 L 219.535208 -175.246134 Z" fill="none" stroke="#5e1b20" stroke-width="1.2"/><path d="M 162.535208 -172.5 L 192.535208 -172.5" fill="none" stroke="#551318" stroke-width="1.6" /><path d="M 169.535208 -168.5 L 185.535208 -168.5" fill="none" stroke="#8c2028" stroke-width="1" /><path d="M 162.535208 -32.5 L 192.535208 -32.5" fill="none" stroke="#551318" stroke-width="1.6" /><path d="M 169.535208 -36.5 L 185.535208 -36.5" fill="none" stroke="#8c2028" stroke-width="1" /><path d="M 177.535208 -102.5 L 177.535208 -136.5" fill="none" stroke="#62565a" stroke-width="2.5" stroke-linecap="round"/><path d="M 177.535208 -102.5 L 206.980072 -85.5" fill="none" stroke="#62565a" stroke-width="2.5" stroke-linecap="round"/><path d="M 177.535208 -102.5 L 148.090344 -85.5" fill="none" stroke="#62565a" stroke-width="2.5" stroke-linecap="round"/><path d="M 177.535208 -134.5 L 177.535208 -111.5" fill="none" stroke="#ff2a2a" stroke-width="4" stroke-linecap="round" filter="url(#hot)"/><path d="M 177.535208 -133.5 L 177.535208 -112.5" fill="none" stroke="#fff1ec" stroke-width="1.3" stroke-linecap="round"/><path d="M 281.535208 102.5 L 229.535208 192.566642 L 125.535208 192.566642 L 73.535208 102.5 L 125.535208 12.433358 L 229.535208 12.433358 Z" fill="none" stroke="#b00010" stroke-width="11" filter="url(#glow)"/><path d="M 281.535208 102.5 L 229.535208 192.566642 L 125.535208 192.566642 L 73.535208 102.5 L 125.535208 12.433358 L 229.535208 12.433358 Z" fill="url(#depth)" stroke="#ff2a2a" stroke-width="6.5" stroke-linejoin="round"/><path d="M 261.535208 102.5 L 219.535208 175.246134 L 135.535208 175.246134 L 93.535208 102.5 L 135.535208 29.753866 L 219.535208 29.753866 Z" fill="none" stroke="#5e1b20" stroke-width="1.2"/><path d="M 162.535208 32.5 L 192.535208 32.5" fill="none" stroke="#551318" stroke-width="1.6" /><path d="M 169.535208 36.5 L 185.535208 36.5" fill="none" stroke="#8c2028" stroke-width="1" /><path d="M 162.535208 172.5 L 192.535208 172.5" fill="none" stroke="#551318" stroke-width="1.6" /><path d="M 169.535208 168.5 L 185.535208 168.5" fill="none" stroke="#8c2028" stroke-width="1" /><path d="M 177.535208 102.5 L 177.535208 68.5" fill="none" stroke="#62565a" stroke-width="2.5" stroke-linecap="round"/><path d="M 177.535208 102.5 L 206.980072 119.5" fill="none" stroke="#62565a" stroke-width="2.5" stroke-linecap="round"/><path d="M 177.535208 102.5 L 148.090344 119.5" fill="none" stroke="#62565a" stroke-width="2.5" stroke-linecap="round"/><path d="M 177.535208 70.5 L 177.535208 93.5" fill="none" stroke="#ff2a2a" stroke-width="4" stroke-linecap="round" filter="url(#hot)"/><path d="M 177.535208 71.5 L 177.535208 92.5" fill="none" stroke="#fff1ec" stroke-width="1.3" stroke-linecap="round"/><path d="M 104 205 L 52 295.066642 L -52 295.066642 L -104 205 L -52 114.933358 L 52 114.933358 Z" fill="none" stroke="#b00010" stroke-width="11" filter="url(#glow)"/><path d="M 104 205 L 52 295.066642 L -52 295.066642 L -104 205 L -52 114.933358 L 52 114.933358 Z" fill="url(#depth)" stroke="#ff2a2a" stroke-width="6.5" stroke-linejoin="round"/><path d="M 84 205 L 42 277.746134 L -42 277.746134 L -84 205 L -42 132.253866 L 42 132.253866 Z" fill="none" stroke="#5e1b20" stroke-width="1.2"/><path d="M -15 135 L 15 135" fill="none" stroke="#551318" stroke-width="1.6" /><path d="M -8 139 L 8 139" fill="none" stroke="#8c2028" stroke-width="1" /><path d="M -15 275 L 15 275" fill="none" stroke="#551318" stroke-width="1.6" /><path d="M -8 271 L 8 271" fill="none" stroke="#8c2028" stroke-width="1" /><path d="M 0 205 L 0 171" fill="none" stroke="#62565a" stroke-width="2.5" stroke-linecap="round"/><path d="M 0 205 L 29.444864 222" fill="none" stroke="#62565a" stroke-width="2.5" stroke-linecap="round"/><path d="M 0 205 L -29.444864 222" fill="none" stroke="#62565a" stroke-width="2.5" stroke-linecap="round"/><path d="M 0 173 L 0 196" fill="none" stroke="#ff2a2a" stroke-width="4" stroke-linecap="round" filter="url(#hot)"/><path d="M 0 174 L 0 195" fill="none" stroke="#fff1ec" stroke-width="1.3" stroke-linecap="round"/><path d="M -73.535208 102.5 L -125.535208 192.566642 L -229.535208 192.566642 L -281.535208 102.5 L -229.535208 12.433358 L -125.535208 12.433358 Z" fill="none" stroke="#b00010" stroke-width="11" filter="url(#glow)"/><path d="M -73.535208 102.5 L -125.535208 192.566642 L -229.535208 192.566642 L -281.535208 102.5 L -229.535208 12.433358 L -125.535208 12.433358 Z" fill="url(#depth)" stroke="#ff2a2a" stroke-width="6.5" stroke-linejoin="round"/><path d="M -93.535208 102.5 L -135.535208 175.246134 L -219.535208 175.246134 L -261.535208 102.5 L -219.535208 29.753866 L -135.535208 29.753866 Z" fill="none" stroke="#5e1b20" stroke-width="1.2"/><path d="M -192.535208 32.5 L -162.535208 32.5" fill="none" stroke="#551318" stroke-width="1.6" /><path d="M -185.535208 36.5 L -169.535208 36.5" fill="none" stroke="#8c2028" stroke-width="1" /><path d="M -192.535208 172.5 L -162.535208 172.5" fill="none" stroke="#551318" stroke-width="1.6" /><path d="M -185.535208 168.5 L -169.535208 168.5" fill="none" stroke="#8c2028" stroke-width="1" /><path d="M -177.535208 102.5 L -177.535208 68.5" fill="none" stroke="#62565a" stroke-width="2.5" stroke-linecap="round"/><path d="M -177.535208 102.5 L -148.090344 119.5" fill="none" stroke="#62565a" stroke-width="2.5" stroke-linecap="round"/><path d="M -177.535208 102.5 L -206.980072 119.5" fill="none" stroke="#62565a" stroke-width="2.5" stroke-linecap="round"/><path d="M -177.535208 70.5 L -177.535208 93.5" fill="none" stroke="#ff2a2a" stroke-width="4" stroke-linecap="round" filter="url(#hot)"/><path d="M -177.535208 71.5 L -177.535208 92.5" fill="none" stroke="#fff1ec" stroke-width="1.3" stroke-linecap="round"/><path d="M -73.535208 -102.5 L -125.535208 -12.433358 L -229.535208 -12.433358 L -281.535208 -102.5 L -229.535208 -192.566642 L -125.535208 -192.566642 Z" fill="none" stroke="#b00010" stroke-width="11" filter="url(#glow)"/><path d="M -73.535208 -102.5 L -125.535208 -12.433358 L -229.535208 -12.433358 L -281.535208 -102.5 L -229.535208 -192.566642 L -125.535208 -192.566642 Z" fill="url(#depth)" stroke="#ff2a2a" stroke-width="6.5" stroke-linejoin="round"/><path d="M -93.535208 -102.5 L -135.535208 -29.753866 L -219.535208 -29.753866 L -261.535208 -102.5 L -219.535208 -175.246134 L -135.535208 -175.246134 Z" fill="none" stroke="#5e1b20" stroke-width="1.2"/><path d="M -192.535208 -172.5 L -162.535208 -172.5" fill="none" stroke="#551318" stroke-width="1.6" /><path d="M -185.535208 -168.5 L -169.535208 -168.5" fill="none" stroke="#8c2028" stroke-width="1" /><path d="M -192.535208 -32.5 L -162.535208 -32.5" fill="none" stroke="#551318" stroke-width="1.6" /><path d="M -185.535208 -36.5 L -169.535208 -36.5" fill="none" stroke="#8c2028" stroke-width="1" /><path d="M -177.535208 -102.5 L -177.535208 -136.5" fill="none" stroke="#62565a" stroke-width="2.5" stroke-linecap="round"/><path d="M -177.535208 -102.5 L -148.090344 -85.5" fill="none" stroke="#62565a" stroke-width="2.5" stroke-linecap="round"/><path d="M -177.535208 -102.5 L -206.980072 -85.5" fill="none" stroke="#62565a" stroke-width="2.5" stroke-linecap="round"/><path d="M -177.535208 -134.5 L -177.535208 -111.5" fill="none" stroke="#ff2a2a" stroke-width="4" stroke-linecap="round" filter="url(#hot)"/><path d="M -177.535208 -133.5 L -177.535208 -112.5" fill="none" stroke="#fff1ec" stroke-width="1.3" stroke-linecap="round"/><path d="M 0 -90.066642 L 0 -114.933358" fill="none" stroke="#5b1018" stroke-width="13" stroke-linecap="butt"/><path d="M 0 -90.066642 L 0 -114.933358" fill="none" stroke="#ff2a2a" stroke-width="8" filter="url(#hot)"/><path d="M 0 -90.066642 L 0 -114.933358" fill="none" stroke="#fff5f2" stroke-width="3.2" /><path d="M 78 -45.033321 L 99.535208 -57.466679" fill="none" stroke="#5b1018" stroke-width="13" stroke-linecap="butt"/><path d="M 78 -45.033321 L 99.535208 -57.466679" fill="none" stroke="#ff2a2a" stroke-width="8" filter="url(#hot)"/><path d="M 78 -45.033321 L 99.535208 -57.466679" fill="none" stroke="#fff5f2" stroke-width="3.2" /><path d="M 78 45.033321 L 99.535208 57.466679" fill="none" stroke="#5b1018" stroke-width="13" stroke-linecap="butt"/><path d="M 78 45.033321 L 99.535208 57.466679" fill="none" stroke="#ff2a2a" stroke-width="8" filter="url(#hot)"/><path d="M 78 45.033321 L 99.535208 57.466679" fill="none" stroke="#fff5f2" stroke-width="3.2" /><path d="M 0 90.066642 L 0 114.933358" fill="none" stroke="#5b1018" stroke-width="13" stroke-linecap="butt"/><path d="M 0 90.066642 L 0 114.933358" fill="none" stroke="#ff2a2a" stroke-width="8" filter="url(#hot)"/><path d="M 0 90.066642 L 0 114.933358" fill="none" stroke="#fff5f2" stroke-width="3.2" /><path d="M -78 45.033321 L -99.535208 57.466679" fill="none" stroke="#5b1018" stroke-width="13" stroke-linecap="butt"/><path d="M -78 45.033321 L -99.535208 57.466679" fill="none" stroke="#ff2a2a" stroke-width="8" filter="url(#hot)"/><path d="M -78 45.033321 L -99.535208 57.466679" fill="none" stroke="#fff5f2" stroke-width="3.2" /><path d="M -78 -45.033321 L -99.535208 -57.466679" fill="none" stroke="#5b1018" stroke-width="13" stroke-linecap="butt"/><path d="M -78 -45.033321 L -99.535208 -57.466679" fill="none" stroke="#ff2a2a" stroke-width="8" filter="url(#hot)"/><path d="M -78 -45.033321 L -99.535208 -57.466679" fill="none" stroke="#fff5f2" stroke-width="3.2" /><path d="M 78 -159.966679 L 99.535208 -147.533321" fill="none" stroke="#5b1018" stroke-width="13" stroke-linecap="butt"/><path d="M 78 -159.966679 L 99.535208 -147.533321" fill="none" stroke="#ff2a2a" stroke-width="8" filter="url(#hot)"/><path d="M 78 -159.966679 L 99.535208 -147.533321" fill="none" stroke="#fff5f2" stroke-width="3.2" /><path d="M 177.535208 -12.433358 L 177.535208 12.433358" fill="none" stroke="#5b1018" stroke-width="13" stroke-linecap="butt"/><path d="M 177.535208 -12.433358 L 177.535208 12.433358" fill="none" stroke="#ff2a2a" stroke-width="8" filter="url(#hot)"/><path d="M 177.535208 -12.433358 L 177.535208 12.433358" fill="none" stroke="#fff5f2" stroke-width="3.2" /><path d="M 99.535208 147.533321 L 78 159.966679" fill="none" stroke="#5b1018" stroke-width="13" stroke-linecap="butt"/><path d="M 99.535208 147.533321 L 78 159.966679" fill="none" stroke="#ff2a2a" stroke-width="8" filter="url(#hot)"/><path d="M 99.535208 147.533321 L 78 159.966679" fill="none" stroke="#fff5f2" stroke-width="3.2" /><path d="M -78 159.966679 L -99.535208 147.533321" fill="none" stroke="#5b1018" stroke-width="13" stroke-linecap="butt"/><path d="M -78 159.966679 L -99.535208 147.533321" fill="none" stroke="#ff2a2a" stroke-width="8" filter="url(#hot)"/><path d="M -78 159.966679 L -99.535208 147.533321" fill="none" stroke="#fff5f2" stroke-width="3.2" /><path d="M -177.535208 12.433358 L -177.535208 -12.433358" fill="none" stroke="#5b1018" stroke-width="13" stroke-linecap="butt"/><path d="M -177.535208 12.433358 L -177.535208 -12.433358" fill="none" stroke="#ff2a2a" stroke-width="8" filter="url(#hot)"/><path d="M -177.535208 12.433358 L -177.535208 -12.433358" fill="none" stroke="#fff5f2" stroke-width="3.2" /><path d="M -99.535208 -147.533321 L -78 -159.966679" fill="none" stroke="#5b1018" stroke-width="13" stroke-linecap="butt"/><path d="M -99.535208 -147.533321 L -78 -159.966679" fill="none" stroke="#ff2a2a" stroke-width="8" filter="url(#hot)"/><path d="M -99.535208 -147.533321 L -78 -159.966679" fill="none" stroke="#fff5f2" stroke-width="3.2" /><path d="M 61 0 L 30.5 52.82755 L -30.5 52.82755 L -61 0 L -30.5 -52.82755 L 30.5 -52.82755 Z" fill="none" stroke="#ff2a2a" stroke-width="14" filter="url(#glow)"/><path d="M 61 0 L 30.5 52.82755 L -30.5 52.82755 L -61 0 L -30.5 -52.82755 L 30.5 -52.82755 Z" fill="none" stroke="#ffefeb" stroke-width="9" stroke-linejoin="round" filter="url(#hot)"/><path d="M 0 0 L 0 33" fill="none" stroke="#fff0eb" stroke-width="4.7" stroke-linecap="round" filter="url(#hot)"/><path d="M 0 0 L -28.578838 -16.5" fill="none" stroke="#fff0eb" stroke-width="4.7" stroke-linecap="round" filter="url(#hot)"/><path d="M 0 0 L 28.578838 -16.5" fill="none" stroke="#fff0eb" stroke-width="4.7" stroke-linecap="round" filter="url(#hot)"/></g></svg>